<?xml version="1.0" standalone="no"?>
<!DOCTYPE svg PUBLIC "-//W3C//DTD SVG 20010904//EN"
 "http://www.w3.org/TR/2001/REC-SVG-20010904/DTD/svg10.dtd">
<svg version="1.0" xmlns="http://www.w3.org/2000/svg"
 width="600.000000pt" height="600.000000pt" viewBox="0 0 600.000000 600.000000"
 preserveAspectRatio="xMidYMid meet">
<metadata>
Created by potrace 1.13, written by Peter Selinger 2001-2015
</metadata>
<g transform="translate(0.000000,600.000000) scale(0.100000,-0.100000)"
fill="#000000" stroke="none">
<path d="M3218 4065 c-28 -16 -338 -540 -338 -572 0 -20 87 -173 98 -173 11 0
112 166 282 465 67 119 82 135 117 135 14 0 23 6 23 15 0 8 -7 15 -15 15 -20
0 -19 11 7 65 12 24 19 47 16 51 -11 10 -171 9 -190 -1z"/>
<path d="M933 3875 c-28 -20 -96 -142 -89 -161 4 -11 30 -14 121 -14 129 0
130 -1 95 -70 -13 -25 -29 -42 -46 -46 -34 -9 -38 -1 -19 35 9 18 13 36 10 41
-8 13 -171 13 -195 0 -20 -11 -60 -74 -60 -96 0 -12 37 -14 233 -14 229 0 234
0 254 23 11 12 27 36 35 52 8 17 23 44 34 62 10 17 15 35 11 40 -5 4 -59 6
-122 5 -77 -1 -116 2 -121 10 -10 16 36 95 64 108 33 15 38 6 23 -35 -7 -19
-9 -39 -6 -45 7 -11 124 -14 172 -4 20 4 37 19 56 48 49 79 57 76 -201 76
-186 0 -231 -3 -249 -15z"/>
<path d="M1469 3877 c-15 -11 -78 -109 -161 -250 -23 -39 -34 -65 -28 -71 16
-16 192 -7 211 10 9 8 32 43 50 77 42 80 112 189 133 206 24 20 32 5 18 -32
-7 -19 -12 -39 -12 -45 0 -19 170 -16 197 3 25 17 66 92 58 106 -9 14 -446 11
-466 -4z"/>
<path d="M1988 3878 c-9 -7 -42 -60 -74 -118 -31 -58 -68 -122 -81 -142 -40
-64 -35 -68 70 -68 84 0 95 2 113 23 19 21 79 121 118 198 26 50 38 64 65 78
16 9 26 10 33 3 7 -7 -8 -42 -48 -109 -82 -135 -105 -179 -97 -187 3 -3 50 -6
104 -6 115 0 96 -15 197 164 68 120 103 159 124 138 8 -8 -7 -43 -58 -129
-103 -177 -125 -223 -118 -247 10 -32 85 -156 95 -156 8 0 119 181 119 193 0
3 45 82 100 177 55 94 100 177 100 185 0 13 -51 15 -373 15 -283 0 -377 -3
-389 -12z"/>
<path d="M3358 3878 c-23 -18 -178 -289 -178 -310 0 -17 17 -18 228 -18 125 0
232 4 238 8 19 13 65 92 59 102 -9 15 -178 12 -196 -2 -9 -7 -23 -25 -32 -40
-18 -29 -54 -45 -68 -31 -6 6 3 28 23 59 l33 49 133 5 c133 5 134 5 157 34 34
43 78 133 70 145 -10 17 -446 15 -467 -1z"/>
<path d="M3882 3883 c-19 -7 -62 -79 -62 -104 0 -20 4 -21 101 -17 87 3 103 6
115 23 40 57 48 65 65 65 24 0 24 -7 -1 -55 -31 -62 -40 -65 -180 -65 -109 0
-129 -3 -142 -17 -23 -27 -88 -139 -88 -152 0 -17 470 -15 493 2 9 6 37 53 63
102 26 50 62 112 81 139 61 89 67 86 -199 85 -128 0 -239 -3 -246 -6z"/>
<path d="M4405 3881 c-11 -5 -33 -35 -49 -67 -16 -33 -51 -97 -78 -144 -68
-118 -65 -124 47 -121 93 2 104 6 127 51 7 14 42 74 77 134 61 102 94 135 115
115 12 -10 2 -31 -81 -166 -35 -57 -63 -110 -63 -118 0 -12 17 -15 99 -15 117
0 102 -13 206 169 69 121 97 153 117 133 10 -10 -34 -99 -125 -253 -56 -95
-60 -107 -39 -145 73 -135 81 -143 105 -116 8 9 21 28 27 42 6 14 20 42 33 63
43 72 150 263 185 327 19 36 38 69 43 75 5 5 9 17 9 27 0 17 -20 18 -367 17
-203 0 -377 -4 -388 -8z"/>
<path d="M2727 3423 c-76 -127 -177 -302 -177 -306 0 -8 -128 -226 -151 -256
-12 -16 -18 -34 -15 -40 5 -8 95 -11 286 -11 l279 0 20 28 c12 15 25 33 31 39
26 31 180 293 180 306 0 23 -23 27 -164 27 -73 0 -135 3 -139 6 -3 3 -1 19 5
35 9 27 5 39 -46 124 -31 52 -60 97 -65 100 -5 3 -25 -21 -44 -52z m163 -274
c0 -11 -29 -70 -65 -130 -36 -60 -65 -113 -65 -118 0 -13 -59 -61 -75 -61 -28
0 -25 20 13 82 21 35 56 96 77 136 37 71 74 112 101 112 8 0 14 -9 14 -21z"/>
<path d="M1355 3196 c-17 -7 -41 -32 -55 -57 -14 -24 -30 -53 -37 -64 -7 -11
-18 -31 -25 -45 -24 -48 -81 -145 -88 -150 -10 -7 -30 -47 -30 -58 0 -13 211
-22 232 -11 29 15 92 106 153 219 50 94 85 140 104 140 3 0 13 -4 21 -10 12
-8 11 -15 -8 -49 -13 -23 -21 -45 -17 -50 5 -10 230 -5 246 4 17 11 60 100 57
120 -3 19 -9 20 -263 22 -198 2 -267 -1 -290 -11z"/>
<path d="M1970 3197 c-14 -7 -36 -33 -50 -59 -14 -25 -33 -55 -43 -65 -9 -11
-17 -27 -17 -35 0 -9 -3 -18 -7 -20 -5 -1 -21 -29 -38 -60 -16 -32 -43 -72
-58 -90 -15 -17 -26 -38 -25 -47 3 -15 45 -17 425 -13 l162 2 44 68 c64 98
177 295 177 308 0 7 -7 15 -16 18 -9 3 -131 6 -272 6 -187 0 -264 -4 -282 -13z
m285 -38 c4 -6 -22 -59 -58 -117 -35 -59 -72 -122 -81 -139 -24 -47 -96 -80
-96 -43 0 5 17 37 39 72 21 35 55 93 75 130 47 87 101 130 121 97z"/>
<path d="M3250 3195 c-14 -7 -34 -31 -45 -52 -26 -52 -143 -242 -166 -272 -11
-13 -19 -32 -19 -42 0 -18 14 -19 284 -19 l285 0 20 28 c12 15 25 32 29 38 5
5 48 77 95 159 65 112 84 152 75 162 -16 19 -522 18 -558 -2z m280 -45 c0 -27
-134 -260 -166 -287 -27 -24 -49 -29 -59 -14 -3 6 12 38 33 73 21 35 56 96 77
136 37 71 74 112 101 112 8 0 14 -9 14 -20z"/>
<path d="M3880 3197 c-14 -7 -36 -33 -49 -57 -43 -82 -145 -255 -158 -268 -13
-14 -27 -51 -21 -58 3 -2 132 -5 288 -6 l283 -1 29 34 c35 41 100 164 91 173
-8 8 -201 8 -230 0 -14 -4 -34 -30 -57 -72 -34 -65 -84 -111 -106 -97 -17 10
-12 22 40 106 28 44 50 83 50 86 0 3 14 29 32 58 33 56 65 79 88 65 11 -7 10
-16 -5 -49 -10 -23 -16 -43 -13 -46 2 -2 52 -6 111 -9 78 -2 111 0 125 10 25
17 76 119 68 133 -10 16 -534 14 -566 -2z"/>
<path d="M4503 3195 c-17 -7 -34 -23 -38 -35 -4 -12 -18 -38 -32 -59 -14 -20
-41 -67 -60 -106 -20 -38 -48 -86 -64 -106 -16 -20 -29 -46 -29 -58 0 -20 5
-21 138 -22 75 -1 171 -1 212 -2 183 -1 219 2 238 23 9 11 61 95 114 187 75
128 95 169 87 180 -17 19 -520 18 -566 -2z m287 -48 c0 -7 -6 -21 -14 -32 -7
-11 -37 -65 -65 -120 -55 -105 -81 -139 -119 -150 -38 -11 -36 18 6 81 21 32
56 91 76 129 21 39 47 78 58 88 24 20 58 23 58 4z"/>
<path d="M5138 3194 c-16 -8 -28 -18 -28 -22 0 -12 -136 -249 -171 -299 -17
-24 -27 -47 -24 -53 4 -6 55 -10 120 -10 l113 0 30 38 c27 34 107 168 142 236
21 41 65 86 84 86 35 0 26 -32 -33 -129 -34 -55 -61 -103 -61 -108 0 -4 -14
-26 -30 -47 -54 -71 -48 -76 88 -76 111 0 120 1 140 23 12 13 22 28 22 34 0 6
4 13 9 15 4 2 47 70 94 152 66 114 84 153 76 163 -17 20 -533 18 -571 -3z"/>
</g>
</svg>
