<?xml version="1.0" standalone="no"?>
<!DOCTYPE svg PUBLIC "-//W3C//DTD SVG 20010904//EN"
 "http://www.w3.org/TR/2001/REC-SVG-20010904/DTD/svg10.dtd">
<svg version="1.0" xmlns="http://www.w3.org/2000/svg"
 width="1024.000000pt" height="1024.000000pt" viewBox="0 0 1024.000000 1024.000000"
 preserveAspectRatio="xMidYMid meet">
<metadata>
Created by potrace 1.13, written by Peter Selinger 2001-2015
</metadata>
<g transform="translate(0.000000,1024.000000) scale(0.100000,-0.100000)"
fill="#000000" stroke="none">
<path d="M1648 7943 c6 -2 10 -9 7 -14 -3 -5 -14 -4 -24 3 -24 15 -113 -3
-227 -44 -59 -22 -83 -35 -80 -45 3 -7 1 -13 -4 -13 -6 0 -10 5 -10 10 0 22
-193 -88 -196 -111 -1 -5 -2 -13 -3 -19 0 -5 -6 -10 -12 -10 -8 0 -8 5 1 15 7
9 8 15 2 15 -13 0 -212 -189 -212 -202 0 -6 8 -4 18 3 15 13 16 12 3 -3 -7
-10 -17 -15 -22 -13 -23 15 -145 -193 -197 -335 -44 -119 -57 -187 -41 -206 9
-12 10 -17 0 -27 -10 -9 -11 -8 -5 7 5 14 4 17 -4 12 -14 -8 -14 -111 0 -138
5 -10 4 -19 -2 -23 -5 -3 -10 -24 -10 -46 0 -26 4 -38 11 -33 6 3 9 14 6 23
-3 14 1 17 19 13 29 -5 32 -32 4 -32 -11 0 -20 -5 -20 -11 0 -6 6 -9 14 -6 8
3 20 -1 26 -8 12 -15 10 -17 -36 -30 -7 -2 -10 4 -7 16 3 10 0 19 -6 19 -26 0
-6 -162 36 -293 25 -76 27 -80 36 -55 6 14 20 31 32 36 18 9 21 7 20 -11 -1
-11 -11 -24 -22 -28 -11 -4 -23 -15 -26 -24 -8 -19 59 -158 72 -151 5 3 14 -1
20 -8 9 -11 9 -16 0 -22 -7 -4 -9 -3 -5 4 3 6 2 13 -4 17 -52 32 78 -146 179
-244 70 -68 204 -169 186 -141 -5 8 -3 11 6 8 8 -3 14 -10 14 -17 0 -23 173
-105 290 -137 60 -17 68 -17 60 -4 -3 6 -1 10 4 10 6 0 11 -6 11 -14 0 -18 73
-28 230 -31 133 -3 193 2 185 16 -3 4 9 5 27 3 52 -9 248 46 248 68 0 5 4 6
10 3 14 -9 111 36 103 48 -3 6 -1 7 5 3 18 -11 37 4 21 16 -10 7 -8 8 7 4 14
-5 41 8 91 43 88 62 195 160 187 172 -3 5 -2 8 3 7 4 -2 10 2 12 7 2 6 12 16
21 22 25 17 92 113 80 113 -6 0 -10 -5 -10 -12 0 -6 -3 -8 -6 -5 -9 9 16 38
26 32 5 -3 11 -1 14 4 4 5 2 12 -4 16 -6 4 -8 11 -5 16 4 5 -3 9 -14 9 -15 0
-21 6 -21 21 0 12 -4 17 -11 13 -7 -4 -7 2 1 17 18 34 24 38 16 12 -6 -17 -3
-23 9 -23 16 0 37 -38 28 -52 -2 -5 0 -8 5 -8 6 0 12 7 16 15 3 8 1 15 -5 15
-6 0 -7 5 -4 10 4 6 11 7 17 4 8 -5 9 -1 5 10 -4 10 -3 15 3 11 13 -8 62 99
64 137 0 14 4 24 8 22 7 -5 38 88 38 113 0 7 -5 13 -11 13 -5 0 -7 5 -4 10 4
6 11 8 16 5 5 -4 9 6 9 20 0 15 -4 24 -10 20 -6 -3 -7 1 -4 9 3 9 10 14 14 11
4 -3 11 30 15 73 8 88 3 222 -7 216 -4 -3 -4 11 -1 30 3 19 2 43 -2 53 -5 10
-7 22 -6 27 1 5 -1 16 -5 25 -7 16 -9 29 -12 69 -1 12 -7 22 -13 22 -5 0 -7
-4 -4 -10 3 -5 1 -10 -4 -10 -14 0 -14 13 0 27 9 9 6 26 -11 70 -33 84 -111
233 -121 233 -5 0 -9 6 -9 13 0 20 -121 162 -186 219 -92 80 -155 123 -252
172 -95 48 -107 52 -98 37 4 -5 -4 -7 -16 -3 -15 3 -18 7 -9 10 8 3 -14 15
-49 28 -67 26 -84 29 -76 15 7 -11 -21 -8 -31 4 -4 4 -2 5 5 1 6 -4 12 -2 12
3 0 15 -37 14 -42 -1 -3 -7 -10 -8 -17 -4 -11 7 -11 10 0 18 10 6 2 8 -23 6
-21 -2 -38 0 -38 4 0 4 -10 8 -22 7 -22 0 -22 -1 -3 -9 16 -7 17 -9 3 -9 -9
-1 -19 3 -22 7 -3 5 -67 9 -143 9 -76 1 -132 -1 -125 -4z m413 -126 c53 -14
131 -41 174 -61 42 -20 82 -33 89 -29 6 3 8 3 4 -2 -4 -4 27 -31 70 -58 42
-28 113 -87 158 -132 327 -330 411 -812 213 -1221 -186 -383 -553 -614 -974
-614 -182 0 -351 42 -502 125 -35 19 -69 33 -74 29 -5 -3 -8 -1 -7 4 3 9 -100
92 -114 92 -5 0 -8 4 -8 8 0 9 101 72 117 72 6 0 13 -17 17 -39 l6 -38 52 15
c30 8 117 16 203 19 126 4 181 1 345 -22 313 -43 495 -44 632 -3 37 11 37 11
31 54 -5 40 -4 43 28 59 54 27 119 69 119 77 0 4 -25 15 -55 24 -30 10 -55 21
-55 25 0 5 16 34 35 66 60 99 48 107 -70 48 -49 -24 -91 -42 -94 -39 -2 2 9
23 26 47 150 209 185 501 89 738 -91 224 -289 401 -521 463 -33 9 -105 19
-160 23 -356 21 -674 -202 -785 -552 -34 -107 -39 -283 -11 -399 22 -90 69
-195 122 -273 16 -23 29 -44 29 -47 0 -2 -31 -22 -70 -42 -38 -21 -70 -44 -70
-50 0 -7 23 -20 50 -29 28 -9 50 -18 50 -20 0 -2 -16 -31 -35 -65 -19 -34 -35
-66 -35 -71 0 -5 -4 -9 -9 -9 -12 0 -126 123 -158 171 -14 21 -29 36 -34 34
-4 -3 -11 0 -15 6 -4 8 -3 9 4 5 7 -4 12 -6 12 -4 0 13 -88 177 -92 172 -3 -3
-5 1 -5 8 1 7 -12 65 -28 128 -26 103 -29 131 -29 265 0 120 5 168 22 238 27
109 72 223 118 298 36 60 41 75 22 63 -7 -4 -8 -3 -4 5 4 6 11 9 16 6 11 -7
33 22 25 35 -4 6 -2 9 3 8 5 -2 39 29 76 69 184 198 389 304 671 347 79 12
292 -3 386 -27z m-162 -433 c5 4 12 2 16 -3 3 -6 12 -8 19 -5 9 3 18 -6 24
-25 12 -33 21 -38 40 -19 9 9 12 8 12 -6 0 -9 4 -15 8 -12 5 3 9 -8 9 -24 0
-17 -6 -30 -13 -30 -14 0 -23 -20 -16 -37 6 -18 31 -16 38 2 8 19 54 19 80 0
11 -8 14 -15 7 -15 -15 0 -17 -36 -3 -45 6 -3 10 1 10 10 0 12 6 15 23 9 12
-4 25 -12 29 -18 8 -10 7 -22 -8 -96 -3 -18 -1 -30 5 -30 6 0 11 6 11 13 1 8
5 7 13 -3 7 -9 19 -14 28 -12 9 1 22 -4 29 -13 9 -11 9 -15 1 -15 -7 0 -9 -5
-6 -10 4 -6 2 -17 -5 -25 -12 -15 1 -28 31 -30 13 -1 15 4 9 25 -6 21 -3 29
12 39 10 6 23 9 28 6 6 -4 10 0 10 9 0 8 6 17 13 20 10 5 10 7 0 12 -7 3 -13
13 -13 21 0 12 3 13 14 4 11 -9 15 -9 20 1 5 10 7 10 12 1 3 -7 13 -13 21 -13
9 0 13 -6 9 -15 -3 -9 0 -15 9 -15 8 0 15 -7 15 -16 0 -11 5 -14 17 -10 11 5
25 -3 44 -25 23 -27 25 -34 14 -46 -8 -7 -12 -26 -10 -42 2 -20 -3 -35 -16
-47 -13 -12 -16 -20 -8 -24 6 -4 0 -10 -16 -14 -19 -5 -25 -11 -21 -22 3 -9 6
-20 6 -25 0 -5 7 -9 15 -9 8 0 15 -4 15 -10 0 -5 -4 -10 -9 -10 -5 0 -13 -9
-16 -20 -4 -12 -15 -20 -28 -20 -12 0 -17 -4 -12 -8 13 -9 18 -62 6 -62 -5 0
-12 8 -15 17 -5 13 -9 14 -15 5 -4 -7 -12 -12 -18 -10 -5 2 -21 -10 -34 -26
-30 -34 -79 -44 -79 -16 0 22 -22 32 -41 19 -12 -8 -11 -11 4 -20 20 -12 14
-31 -8 -22 -8 3 -15 0 -15 -7 0 -7 -7 -10 -15 -6 -8 3 -14 0 -12 -7 1 -7 -6
-11 -15 -9 -10 2 -18 -2 -18 -8 0 -5 -5 -10 -11 -10 -6 0 -9 9 -6 19 3 14 -2
20 -19 24 -13 2 -24 0 -24 -4 0 -5 -11 -9 -25 -9 -27 0 -31 10 -15 41 9 15 7
19 -7 19 -33 0 -46 -15 -34 -39 9 -16 9 -21 0 -21 -7 0 -18 -8 -26 -17 -13
-17 -14 -16 -10 5 5 19 2 23 -16 20 -12 -2 -28 -16 -37 -31 -14 -26 -14 -29 3
-38 23 -14 22 -23 -7 -39 -30 -16 -48 -78 -35 -124 11 -39 59 -96 82 -96 9 0
18 -4 21 -9 3 -4 18 -11 33 -14 16 -3 37 -13 48 -22 19 -15 17 -16 -30 -10
-27 3 -65 5 -82 6 -21 0 -36 7 -43 18 -5 10 -22 21 -37 24 l-27 5 25 -20 24
-20 -45 7 c-25 4 -70 9 -100 12 -30 3 -57 7 -59 9 -3 2 5 14 16 27 36 38 57
270 28 316 -10 18 -79 13 -126 -9 -24 -11 -53 -20 -64 -20 -24 -1 -69 -37 -80
-65 -5 -13 -9 -15 -12 -7 -3 6 -17 12 -33 12 -16 0 -30 7 -34 16 -4 12 -15 15
-36 12 -20 -3 -30 0 -30 9 0 7 -3 13 -6 13 -10 0 -49 -23 -57 -34 -6 -8 -10
-8 -13 1 -3 7 -12 9 -20 6 -17 -6 -19 8 -2 25 9 9 9 15 -1 25 -10 8 -12 8 -7
0 8 -14 -10 -27 -19 -14 -3 6 -12 8 -19 5 -9 -3 -17 4 -21 18 -4 13 -13 30
-21 38 -19 22 -7 62 16 55 10 -3 21 -1 25 5 3 5 0 10 -8 10 -7 0 -23 12 -36
26 -12 14 -28 23 -36 21 -19 -8 -42 67 -24 79 4 2 5 12 2 21 -5 12 -2 15 10
10 9 -3 19 -2 23 4 4 6 10 7 17 0 18 -15 69 -1 62 16 -3 11 -1 13 10 9 9 -3
15 0 15 9 0 21 18 19 23 -2 4 -15 6 -15 12 5 8 24 25 30 25 8 0 -9 8 -12 25
-8 19 3 23 8 15 17 -5 6 -7 15 -3 18 3 4 0 13 -7 22 -7 8 -10 16 -6 16 3 1 11
3 16 4 6 1 15 3 22 4 9 1 9 4 0 13 -16 16 -15 31 2 25 7 -3 19 0 25 6 8 8 14
8 23 -1 17 -17 41 -15 34 3 -3 8 -1 15 4 15 6 0 10 5 10 12 0 9 -3 9 -12 0
-17 -17 -31 -15 -24 3 3 10 -1 15 -14 15 -10 0 -21 9 -25 19 -4 12 -12 18 -21
14 -17 -6 -19 23 -1 31 8 4 9 8 1 11 -6 3 -9 17 -6 30 3 18 11 25 28 25 15 0
24 -6 24 -15 0 -8 7 -15 15 -15 9 0 12 6 9 15 -7 18 -4 18 29 6 21 -8 26 -6
38 17 7 15 15 29 16 31 1 2 9 -2 18 -9 13 -10 15 -9 15 9 0 21 1 21 25 5 15
-9 25 -12 25 -5 0 5 -12 17 -27 24 l-27 15 32 16 c28 15 44 30 24 24 -4 -2 -8
1 -9 6 -1 5 -7 13 -15 18 -10 7 -10 10 5 19 9 5 17 17 17 24 0 21 9 19 31 -7
l20 -23 -7 24 c-5 20 -4 23 12 17 10 -4 15 -4 11 0 -13 13 26 33 45 23 14 -7
16 -6 12 6 -4 8 -1 15 4 15 6 0 14 -9 17 -21 5 -16 10 -18 21 -8 16 13 44 5
44 -13 0 -7 11 -18 24 -24 22 -10 23 -10 10 15 -19 36 -17 43 6 36 14 -4 22
-1 26 10 6 14 9 13 30 -6 12 -11 27 -18 33 -15z m-74 -1210 c247 -34 406 -41
520 -21 49 9 93 13 97 9 3 -4 10 -44 13 -88 l7 -81 -68 -14 c-107 -22 -309
-16 -544 15 -234 32 -438 36 -533 13 -43 -11 -60 -12 -62 -3 -7 21 -22 161
-19 168 2 3 34 11 72 17 37 6 78 13 92 15 49 9 248 -6 425 -30z"/>
<path d="M2381 7476 c-60 -60 -70 -75 -58 -84 12 -10 20 -6 43 23 15 19 32 35
37 35 5 0 6 -29 2 -69 -4 -44 -3 -71 4 -75 6 -4 12 9 16 31 13 79 15 83 39 83
13 0 34 8 47 19 20 16 22 22 12 44 -6 13 -25 34 -41 45 l-29 21 -72 -73z"/>
<path d="M853 7162 c-4 -10 11 -31 48 -63 30 -27 57 -49 62 -49 4 0 7 -4 7
-10 0 -6 -33 -10 -80 -10 -63 0 -82 -3 -87 -15 -8 -22 -5 -23 84 -55 43 -15
86 -31 96 -35 11 -5 17 -3 17 7 0 8 -26 21 -67 32 -104 29 -104 33 -2 42 l94
9 -72 59 c-40 33 -71 61 -70 63 2 1 39 -9 82 -23 63 -20 80 -23 86 -12 14 22
11 25 -33 31 -24 3 -69 15 -101 25 -52 18 -59 18 -64 4z"/>
<path d="M927 6787 l-48 -41 -15 22 c-10 14 -26 22 -45 22 -36 0 -51 -30 -42
-85 l6 -36 103 3 c90 3 104 5 104 20 0 15 -7 16 -50 11 -63 -7 -66 10 -10 49
40 27 66 63 53 71 -5 3 -29 -14 -56 -36z"/>
<path d="M3910 7825 c-289 -65 -449 -246 -450 -507 0 -141 47 -245 156 -346
72 -67 125 -102 352 -228 274 -153 376 -292 358 -489 -21 -225 -207 -362 -460
-340 -191 16 -315 88 -453 260 l-32 40 -1 -156 0 -157 41 -16 c73 -30 231 -66
357 -82 150 -20 256 -10 390 35 273 91 441 298 442 543 0 141 -43 242 -150
348 -76 76 -119 104 -415 268 -137 77 -237 166 -274 245 -31 68 -37 157 -17
235 41 161 168 242 376 242 159 -1 252 -34 351 -127 25 -24 48 -43 50 -43 2 0
3 60 1 134 l-3 133 -87 7 c-212 15 -466 16 -532 1z"/>
<path d="M5345 7805 c-99 -7 -217 -13 -262 -14 l-81 -1 18 -37 c44 -92 45
-119 45 -928 0 -834 1 -822 -55 -937 -11 -23 -20 -43 -20 -45 0 -2 92 -3 205
-3 113 0 205 2 205 3 0 2 -7 18 -15 35 -38 75 -45 155 -45 541 l0 374 44 -5
c64 -8 131 -44 170 -91 18 -23 138 -193 266 -377 274 -395 287 -412 348 -447
44 -26 53 -28 207 -31 l160 -4 -76 79 c-96 99 -124 135 -299 378 -79 110 -201
280 -272 377 -70 98 -128 182 -128 187 0 5 10 11 23 15 43 11 176 96 236 152
121 112 181 238 181 383 0 172 -66 286 -210 361 -13 7 -56 21 -95 31 -83 22
-267 23 -550 4z m394 -133 c89 -35 126 -65 157 -129 25 -50 29 -72 32 -164 2
-59 -1 -130 -7 -159 -35 -161 -150 -273 -319 -309 -56 -12 -202 -15 -239 -5
l-23 6 0 395 0 396 173 -5 c143 -4 181 -9 226 -26z"/>
<path d="M6753 7769 c15 -11 32 -37 38 -58 18 -61 6 -1291 -15 -1449 -25 -189
-42 -260 -85 -344 l-39 -78 175 0 c163 0 175 1 168 18 -52 123 -57 195 -53
939 3 684 4 705 42 674 17 -14 20 -21 276 -691 111 -289 228 -592 260 -675 32
-82 68 -177 80 -210 13 -33 26 -64 30 -68 4 -4 16 16 27 45 11 30 51 125 88
213 37 88 103 246 147 350 44 105 116 276 160 380 44 105 103 244 130 310 28
66 71 167 95 225 48 114 66 141 83 124 8 -8 10 -235 7 -740 -3 -742 -5 -784
-42 -876 -7 -17 7 -18 215 -18 208 0 222 1 215 18 -86 200 -115 512 -115 1226
0 443 8 563 40 649 11 28 20 53 20 55 0 1 -76 2 -169 2 -151 0 -171 -2 -193
-19 -30 -24 -41 -50 -333 -761 -130 -316 -248 -601 -262 -632 -24 -55 -48 -77
-64 -61 -5 5 -117 330 -249 723 -173 514 -246 720 -261 733 -19 15 -46 17
-231 17 l-211 0 26 -21z"/>
<path d="M3312 5578 l3 -23 2758 -3 2757 -2 0 25 0 25 -2761 0 -2760 0 3 -22z"/>
<path d="M6995 5321 c-144 -26 -215 -143 -164 -273 17 -43 76 -75 189 -103 58
-14 126 -33 151 -41 128 -41 140 -164 23 -231 -31 -18 -55 -23 -120 -23 -127
0 -196 45 -212 140 -7 42 -10 45 -40 48 -29 3 -32 1 -32 -25 0 -94 66 -179
159 -207 106 -31 251 -16 321 34 69 49 93 172 47 241 -36 54 -76 73 -234 114
-117 31 -154 45 -175 66 -51 51 -28 147 44 186 51 27 162 24 214 -6 41 -23 84
-82 84 -115 0 -12 9 -16 35 -16 43 0 45 18 13 86 -43 93 -176 148 -303 125z"/>
<path d="M3380 5303 c0 -5 0 -125 0 -268 0 -258 1 -260 26 -313 43 -89 123
-132 244 -132 120 0 200 43 248 133 l27 52 3 268 4 267 -36 0 -36 0 0 -247 c0
-142 -5 -264 -11 -286 -14 -51 -63 -104 -109 -118 -20 -6 -70 -10 -111 -8 -87
5 -127 27 -162 92 -21 40 -22 56 -25 305 l-3 262 -30 0 c-16 0 -29 -3 -29 -7z"/>
<path d="M4062 4958 l3 -353 33 -3 32 -3 0 303 0 302 80 -114 c44 -63 137
-198 207 -300 125 -180 129 -185 166 -188 l37 -3 0 356 0 356 -32 -3 -33 -3 0
-293 c0 -160 -3 -292 -7 -292 -4 0 -13 10 -20 23 -7 13 -98 145 -201 295
l-188 272 -40 0 -39 0 2 -352z"/>
<path d="M4770 4955 l0 -356 33 3 32 3 0 350 0 350 -32 3 -33 3 0 -356z"/>
<path d="M4910 5304 c0 -3 29 -83 64 -177 35 -95 93 -251 129 -347 l65 -175
38 0 c46 0 34 -25 193 405 l109 295 -30 3 c-17 2 -34 0 -38 -5 -4 -4 -56 -144
-116 -310 -60 -167 -112 -303 -115 -303 -3 0 -54 134 -114 298 -59 163 -110
303 -112 310 -5 12 -73 18 -73 6z"/>
<path d="M5572 4958 l3 -353 245 0 245 0 3 28 3 27 -215 0 -216 0 0 140 0 140
201 0 200 0 -3 28 -3 27 -198 3 -198 2 3 126 3 126 208 -2 207 -1 0 31 0 30
-245 0 -245 0 2 -352z"/>
<path d="M6162 4958 l3 -353 33 -3 32 -3 0 161 0 161 161 -3 161 -3 28 -31
c31 -35 50 -106 50 -184 0 -77 13 -100 55 -100 38 0 40 2 25 31 -6 11 -15 64
-19 118 -10 114 -27 153 -77 179 l-37 19 39 20 c96 49 114 215 33 290 -48 44
-98 53 -300 53 l-189 0 2 -352z m413 272 c33 -21 40 -30 56 -84 12 -41 -5 -96
-38 -128 -40 -38 -100 -49 -238 -46 l-120 3 -3 138 -3 137 157 0 c140 0 160
-2 189 -20z"/>
<path d="M7460 4955 l0 -355 30 0 30 0 0 355 0 355 -30 0 -30 0 0 -355z"/>
<path d="M7600 5280 l0 -30 120 0 120 0 2 -322 3 -323 33 -3 32 -3 0 325 0
326 120 0 c91 0 121 3 127 14 6 9 45 -42 133 -172 l125 -186 5 -150 5 -151 33
-3 32 -3 0 149 0 148 135 199 c74 110 135 203 135 208 0 4 -17 7 -37 5 -37 -3
-40 -7 -148 -175 -60 -95 -113 -172 -116 -173 -4 0 -58 79 -120 175 l-114 175
-312 0 -313 0 0 -30z"/>
<path d="M3375 4344 c-52 -126 -59 -299 -16 -424 25 -73 36 -89 51 -74 6 6 0
34 -17 79 -23 61 -27 85 -27 185 0 100 4 124 27 184 14 39 24 73 21 78 -11 17
-24 7 -39 -28z"/>
<path d="M6239 4364 c-7 -9 -15 -43 -17 -77 -3 -38 -10 -65 -18 -70 -18 -11
-18 -27 1 -27 12 0 15 -22 17 -117 2 -97 6 -118 18 -118 12 0 16 21 18 118 2
109 4 117 22 117 11 0 20 7 20 15 0 8 -9 15 -20 15 -19 0 -21 5 -18 63 3 52 6
62 21 61 10 -1 17 5 17 17 0 24 -42 26 -61 3z"/>
<path d="M8636 4372 c-3 -5 7 -37 22 -73 24 -57 26 -77 27 -189 0 -114 -2
-131 -27 -190 -16 -37 -24 -68 -19 -73 17 -17 30 4 57 86 38 119 37 240 -2
356 -27 79 -45 104 -58 83z"/>
<path d="M4010 4283 c0 -68 -3 -84 -12 -75 -19 19 -56 14 -72 -10 -54 -82 -17
-274 48 -253 11 4 33 7 49 7 l27 -1 0 209 c0 203 -1 210 -20 210 -18 0 -20 -7
-20 -87z m-3 -120 c15 -52 8 -162 -10 -181 -13 -13 -21 -14 -35 -6 -14 9 -18
29 -20 99 -3 91 5 115 39 115 12 0 21 -10 26 -27z"/>
<path d="M3474 4336 c-3 -8 -4 -90 -2 -181 l3 -167 28 -24 c31 -26 54 -30 90
-13 41 19 47 48 47 230 0 147 -2 170 -15 167 -13 -2 -16 -30 -18 -169 -2 -177
-8 -199 -51 -199 -43 0 -46 15 -46 197 0 149 -2 173 -15 173 -9 0 -18 -7 -21
-14z"/>
<path d="M5727 4333 c-8 -10 -19 -30 -22 -45 -6 -24 -4 -28 14 -28 14 0 21 6
21 18 0 41 51 57 70 23 26 -50 -3 -121 -50 -121 -11 0 -20 -7 -20 -15 0 -9 9
-15 23 -15 36 0 59 -32 59 -83 0 -58 -16 -87 -47 -87 -26 0 -45 25 -45 59 0
12 -7 21 -15 21 -10 0 -15 -10 -15 -33 0 -94 110 -116 147 -30 19 46 13 125
-12 153 -16 17 -16 21 -2 34 36 36 28 134 -13 156 -29 16 -75 12 -93 -7z"/>
<path d="M6444 4335 c-3 -8 -4 -89 -3 -180 4 -155 5 -166 27 -187 31 -32 97
-31 123 1 17 21 19 41 19 202 0 152 -2 179 -15 179 -13 0 -15 -25 -16 -157 -1
-190 -5 -207 -44 -211 -50 -6 -55 13 -55 200 0 144 -2 168 -15 168 -9 0 -18
-7 -21 -15z"/>
<path d="M6723 4335 c-31 -22 -43 -74 -43 -195 0 -118 15 -164 63 -190 24 -13
30 -13 54 0 40 22 53 56 53 138 l0 72 -46 0 c-38 0 -45 -3 -42 -17 2 -11 14
-19 31 -21 25 -3 27 -7 27 -45 0 -85 -51 -126 -87 -71 -26 40 -26 234 0 282
22 40 48 41 75 5 17 -23 23 -26 33 -16 10 11 9 18 -8 40 -24 33 -77 42 -110
18z"/>
<path d="M6942 4325 c-35 -30 -52 -87 -52 -180 0 -139 34 -199 111 -193 33 2
45 7 47 21 3 16 -1 18 -26 12 -67 -14 -92 30 -92 162 0 125 32 183 95 167 18
-4 25 -2 25 9 0 35 -68 36 -108 2z"/>
<path d="M7246 4333 c-3 -10 -19 -92 -36 -183 -17 -91 -33 -173 -36 -182 -4
-13 0 -18 14 -18 15 0 21 9 26 40 6 40 6 40 51 40 47 0 48 -1 59 -52 7 -31 36
-39 36 -10 -1 9 -18 98 -38 197 -29 138 -42 181 -54 183 -9 2 -19 -5 -22 -15z"/>
<path d="M7797 4344 c-14 -14 -7 -24 18 -24 l25 0 0 -185 c0 -179 1 -185 20
-185 20 0 20 5 18 198 l-3 197 -35 3 c-20 2 -39 0 -43 -4z"/>
<path d="M8022 4325 c-61 -78 -17 -219 62 -199 l27 6 -37 -78 c-20 -44 -38
-85 -41 -91 -3 -8 3 -13 15 -13 16 0 28 21 62 106 60 147 65 229 20 274 -29
29 -83 27 -108 -5z"/>
<path d="M8247 4343 c-2 -4 -8 -44 -11 -88 -4 -44 -9 -88 -12 -97 -4 -15 -1
-15 32 -5 34 10 38 9 60 -16 29 -34 32 -100 8 -136 -15 -20 -22 -23 -60 -17
-35 4 -44 3 -44 -9 0 -20 48 -38 80 -30 37 10 59 33 71 78 22 82 -20 167 -83
167 l-29 0 6 53 c10 77 10 77 61 77 32 0 44 4 42 13 -5 14 -113 23 -121 10z"/>
<path d="M8520 4330 c-23 -43 -78 -197 -85 -236 -10 -63 9 -121 46 -140 18 -9
41 -13 55 -10 59 15 84 128 43 195 -17 29 -24 33 -54 29 -19 -2 -35 -1 -35 3
0 4 13 36 29 71 41 93 45 108 27 108 -8 0 -20 -9 -26 -20z"/>
<path d="M3717 4213 c-4 -3 -7 -64 -7 -135 0 -121 1 -128 20 -128 19 0 20 7
20 109 0 86 3 113 16 125 12 12 20 13 35 6 17 -10 19 -22 19 -125 0 -96 3
-115 15 -115 23 0 22 232 -1 254 -18 18 -55 21 -71 5 -8 -8 -13 -8 -17 0 -8
12 -20 14 -29 4z"/>
<path d="M4131 4201 c-25 -25 -35 -75 -29 -153 4 -51 9 -65 32 -85 15 -12 34
-23 42 -23 24 0 64 47 64 75 0 35 -26 32 -33 -4 -13 -61 -77 -36 -77 30 0 27
3 29 38 30 81 2 77 0 74 49 -5 82 -66 126 -111 81z"/>
<path d="M4686 4201 c-75 -82 -25 -291 60 -252 27 12 58 71 44 85 -12 12 -30
-2 -30 -23 0 -24 -25 -45 -44 -38 -15 6 -42 85 -32 95 3 3 29 5 58 6 l53 1 -1
46 c0 60 -25 99 -63 99 -15 0 -35 -8 -45 -19z"/>
<path d="M5228 4209 c-54 -31 -48 -219 8 -256 30 -19 64 -8 90 31 24 37 17
185 -10 215 -20 22 -60 27 -88 10z m71 -45 c14 -31 14 -124 1 -159 -11 -29
-36 -43 -52 -27 -17 17 -27 98 -19 152 12 73 45 89 70 34z"/>
<path d="M5400 4215 c-1 -3 -1 -62 -1 -132 0 -109 2 -128 15 -131 14 -3 16 12
16 107 0 86 3 113 16 125 12 12 20 13 35 6 17 -10 19 -22 19 -125 0 -96 3
-115 15 -115 23 0 22 232 -1 254 -18 18 -55 21 -71 5 -8 -8 -13 -8 -17 0 -7
11 -26 15 -26 6z"/>
<path d="M6044 4199 c-14 -16 -20 -40 -22 -98 -4 -87 6 -123 43 -147 69 -45
125 64 99 194 -13 66 -80 95 -120 51z m76 -25 c17 -20 18 -151 1 -182 -15 -29
-41 -25 -58 8 -15 30 -17 128 -3 164 11 29 41 34 60 10z"/>
</g>
</svg>
